<?xml version="1.0" encoding="UTF-8" standalone="yes"?>
<!DOCTYPE svg PUBLIC "-//W3C//DTD SVG 1.0//EN" "http://www.w3.org/TR/2001/REC-SVG-20010904/DTD/svg10.dtd">
<svg width="2.992323" height="1.114399" xmlns="http://www.w3.org/2000/svg" xmlns:svg="http://www.w3.org/2000/svg" xmlns:xlink="http://www.w3.org/1999/xlink" xmlns:slic3r="http://slic3r.org/namespaces/slic3r">
  <!-- 
  Generated using Slic3r 1.2.9
  http://slic3r.org/
   -->
  <g id="layer0" slic3r:z="2.5e-07">
    <polygon slic3r:type="contour" points="0.660986,0.058797 0.702044,0.058885 0.703351,0.058888 0.704432,0.058891 0.712338,0.058953 0.74176,0.059177 0.745041,0.059239 0.750291,0.05935 0.769417,0.059746 0.777033,0.060167 0.785654,0.060689 0.793121,0.06251 0.794374,0.062815 0.794785,0.063273 0.798296,0.066898 0.799762,0.073583 0.799787,0.073741 0.799806,0.073961 0.801111,0.083963 0.80113,0.084121 0.801237,0.085012 0.802615,0.096654 0.808518,0.138144 0.85933,0.150652 0.859898,0.150795 0.859999,0.150824 0.860164,0.150877 0.888404,0.159662 0.90841,0.168064 0.918814,0.172672 0.932804,0.18153 0.94829,0.19104 0.957044,0.199295 0.974059,0.21595 0.993841,0.242396 0.996284,0.245616 0.99767,0.248031 1.009871,0.269073 1.015139,0.278286 1.028572,0.307604 1.030808,0.312178 1.032823,0.316895 1.043645,0.345499 1.051244,0.37069 1.054125,0.378239 1.056295,0.384409 1.0625,0.41053 1.066769,0.43672 1.068309,0.443302 1.069051,0.449931 1.071506,0.477195 1.072529,0.502681 1.072889,0.510843 1.072963,0.519021 1.073176,0.542674 1.073006,0.563662 1.072914,0.572485 1.072833,0.581231 1.072669,0.600167 1.072086,0.617352 1.071746,0.627523 1.070816,0.639367 1.069456,0.656352 1.067148,0.67326 1.06511,0.688455 1.061302,0.708542 1.058021,0.72563 1.054304,0.741526 1.048885,0.76501 1.041699,0.791647 1.038403,0.803723 1.035282,0.813481 1.027265,0.838909 1.018323,0.862153 1.016157,0.867706 1.014046,0.871966 1.004487,0.891563 0.99318,0.90955 0.991666,0.911924 0.990039,0.913945 0.97711,0.930229 0.96105,0.947074 0.960241,0.947914 0.95935,0.948685 0.940412,0.965189 0.937119,0.967588 0.917831,0.981587 0.916943,0.982229 0.915774,0.982947 0.889177,0.999288 0.861177,1.014097 0.856423,1.016626 0.850554,1.019338 0.820183,1.033117 0.791777,1.043791 0.782063,1.047609 0.771489,1.050893 0.743731,1.058927 0.718871,1.063417 0.706868,1.065865 0.695472,1.067236 0.67303,1.069564 0.654141,1.07053 0.643664,1.071172 0.635176,1.071444 0.620197,1.071846 0.610049,1.072389 0.604083,1.072746 0.599725,1.07335 0.592622,1.074265 0.58684,1.075795 0.583147,1.0768 0.579076,1.07838 0.572996,1.080746 0.564971,1.084162 0.559495,1.086503 0.552783,1.08923 0.54333,1.093041 0.532997,1.096609 0.525182,1.099333 0.516589,1.101567 0.505742,1.104341 0.494789,1.105771 0.485708,1.107029 0.476561,1.107253 0.465717,1.1074 0.455203,1.106281 0.446418,1.10546 0.438333,1.10361 0.428456,1.10122 0.419413,1.09749 0.412469,1.094694 0.40659,1.091452 0.39853,1.086943 0.3914,1.082152 0.386691,1.079017 0.382965,1.076317 0.376993,1.071954 0.372196,1.068639 0.369473,1.066781 0.366844,1.065189 0.361932,1.062169 0.35537,1.058537 0.35218,1.056795 0.34771,1.054457 0.338024,1.049333 0.323148,1.041523 0.317279,1.038461 0.310312,1.034714 0.291208,1.024423 0.267257,1.010957 0.261092,1.007479 0.254953,1.003798 0.22822,0.987904 0.196675,0.967783 0.193913,0.966001 0.191513,0.964218 0.159998,0.941046 0.159813,0.940909 0.129866,0.913717 0.127558,0.911637 0.125154,0.908775 0.098686,0.877296 0.080171,0.84608 0.074675,0.836816 0.069412,0.824993 0.055259,0.792931 0.046137,0.765681 0.040239,0.748461 0.035326,0.729546 0.02948,0.706317 0.026409,0.688713 0.022904,0.669481 0.020831,0.649946 0.01946,0.636406 0.018978,0.625285 0.018076,0.605509 0.017779,0.583217 0.01767,0.575183 0.017547,0.56824 0.017147,0.543792 0.01703,0.513434 0.017022,0.511184 0.017066,0.509315 0.017524,0.489039 0.017801,0.477402 0.019893,0.445838 0.020032,0.443136 0.020321,0.440091 0.024249,0.409071 0.030567,0.377607 0.030945,0.375197 0.031598,0.372528 0.040506,0.341474 0.052542,0.310855 0.053447,0.308288 0.054952,0.305255 0.070272,0.276021 0.086851,0.251177 0.090421,0.245594 0.096099,0.238597 0.113369,0.217912 0.128946,0.203301 0.138579,0.193848 0.153475,0.182729 0.165486,0.174223 0.174689,0.169029 0.191904,0.158372 0.213581,0.146825 0.215669,0.145794 0.216964,0.145184 0.226386,0.140363 0.234739,0.136182 0.246837,0.129363 0.256945,0.122003 0.262619,0.113558 0.266321,0.108089 0.267675,0.106154 0.26925,0.103921 0.273431,0.097883 0.277763,0.091867 0.279305,0.089757 0.2807,0.087986 0.284718,0.082797 0.288144,0.079033 0.289074,0.078041 0.289976,0.077443 0.293776,0.07484 0.298509,0.07316 0.300056,0.072636 0.300347,0.072533 0.301059,0.072389 0.310589,0.070465 0.317302,0.069358 0.3259,0.067951 0.333954,0.066837 0.341373,0.065836 0.34547,0.065291 0.361173,0.063582 0.36816,0.062815 0.370103,0.062653 0.373637,0.06237 0.393011,0.060841 0.401236,0.060452 0.415705,0.059813 0.419031,0.059664 0.43372,0.059326 0.446048,0.05907 0.457958,0.058985 0.467134,0.058909 0.473313,0.058869 0.496844,0.058872 0.500001,0.05887 0.500736,0.05887 0.502133,0.058872 0.525301,0.058865 0.533573,0.058855 0.549202,0.058866 0.551732,0.058865 0.569297,0.058837 0.581795,0.058843 0.599649,0.058834 0.61027,0.058816 0.61771,0.058818 0.651667,0.058803 0.656765,0.058795" style="fill: white" />
    <polygon slic3r:type="contour" points="2.492506,0.059049 2.496362,0.05903 2.499114,0.059036 2.50557,0.064681 2.505941,0.064997 2.516026,0.141075 2.660503,0.172794 2.685165,0.217317 2.740893,0.3129 2.770288,0.368222 2.775772,0.445927 2.775674,0.516888 2.775076,0.578086 2.774561,0.634426 2.774181,0.676065 2.744968,0.79558 2.729246,0.855287 2.714246,0.879655 2.685462,0.932325 2.660328,0.952295 2.604493,1.000185 2.469858,1.06199 2.441927,1.073555 2.406585,1.073595 2.306895,1.075376 2.285209,1.080097 2.274658,1.085202 2.210186,1.113564 2.201628,1.112341 2.124586,1.110686 2.119179,1.106124 2.070106,1.069435 2.05466,1.061243 1.961965,1.010309 1.934328,0.996426 1.826425,0.916726 1.787846,0.892801 1.762474,0.823703 1.720462,0.692799 1.72009,0.644397 1.719575,0.578086 1.718978,0.516889 1.716809,0.445721 1.723435,0.356574 1.744411,0.305798 1.80708,0.216487 1.833994,0.181352 1.928248,0.134014 1.952093,0.126371 1.97966,0.085315 1.985369,0.077185 1.995349,0.07291 1.997721,0.071586 2.039682,0.06599 2.092401,0.059002 2.103236,0.058934 2.128394,0.059028 2.16774,0.058838 2.205684,0.05893 2.233988,0.058826 2.29726,0.05905 2.301797,0.059029 2.308503,0.05905 2.413842,0.058606" style="fill: white" />
  </g>
  <g id="layer1" slic3r:z="6.5e-07">
    <polygon slic3r:type="contour" points="0.322984,0.052518 0.328759,0.053246 0.32999,0.05326 0.336591,0.053846 0.339099,0.054125 0.342189,0.054289 0.350553,0.05484 0.352023,0.054967 0.353719,0.055013 0.363061,0.055557 0.367281,0.056182 0.373608,0.056852 0.375381,0.057115 0.382138,0.059234 0.385951,0.060324 0.392853,0.064527 0.394024,0.065273 0.39453,0.066151 0.398624,0.072545 0.410042,0.124232 0.456615,0.116289 0.470553,0.114593 0.486694,0.113149 0.50885,0.112008 0.51865,0.11133 0.527134,0.111168 0.553022,0.111045 0.568364,0.111816 0.590246,0.112878 0.594533,0.113141 0.617882,0.115132 0.639398,0.11694 0.641002,0.117112 0.662785,0.11989 0.677526,0.121827 0.691205,0.124065 0.699964,0.125819 0.703411,0.126556 0.707943,0.127911 0.719614,0.131224 0.724182,0.132926 0.730376,0.135467 0.737804,0.138878 0.746983,0.142382 0.754381,0.144279 0.755776,0.144654 0.758195,0.145173 0.767261,0.14707 0.774484,0.148784 0.781012,0.150421 0.795589,0.155236 0.797197,0.155746 0.798103,0.15612 0.800017,0.156993 0.815456,0.165256 0.823303,0.170152 0.835173,0.177969 0.836142,0.17869 0.847383,0.187982 0.855126,0.194536 0.862952,0.201971 0.869274,0.208465 0.874701,0.214109 0.883603,0.224751 0.888184,0.23057 0.893043,0.23685 0.89996,0.24674 0.90468,0.253807 0.910839,0.263065 0.914375,0.268697 0.920266,0.278562 0.927866,0.291022 0.929214,0.293373 0.935616,0.304694 0.940746,0.313477 0.947426,0.325988 0.950116,0.330794 0.952712,0.335314 0.961086,0.352286 0.963006,0.355522 0.971215,0.372414 0.972347,0.374201 0.978862,0.388057 0.980838,0.392216 0.980943,0.392539 0.981144,0.393264 0.986918,0.410762 0.988358,0.41966 0.989585,0.429721 0.989833,0.439131 0.990191,0.447156 0.989914,0.455552 0.989702,0.461672 0.989482,0.465273 0.988967,0.47269 0.98887,0.478664 0.988844,0.480423 0.991052,0.521148 1.035497,0.5299 1.055015,0.535719 1.063514,0.539479 1.070082,0.542364 1.090527,0.555946 1.096256,0.562291 1.107003,0.574418 1.109321,0.578329 1.114438,0.59779 1.115712,0.602709 1.115622,0.6088 1.115343,0.62892 1.107604,0.65517 1.107462,0.655652 1.107299,0.655912 1.106936,0.656496 1.083735,0.681599 1.076696,0.68608 1.070024,0.690461 1.019862,0.713002 1.028054,0.747641 1.026972,0.751278 1.026518,0.753186 1.025433,0.755721 1.022315,0.762144 1.015025,0.775282 1.014996,0.775327 1.00521,0.790925 0.999532,0.799017 0.99164,0.809592 0.978051,0.825832 0.972078,0.832534 0.970358,0.834023 0.968868,0.8349 0.964823,0.836979 0.950319,0.848567 0.944021,0.85413 0.94069,0.856352 0.934799,0.862322 0.931612,0.865764 0.92971,0.868216 0.926759,0.87176 0.918098,0.882181 0.911521,0.890463 0.906169,0.896228 0.8852,0.918512 0.884156,0.919672 0.88395,0.919912 0.883137,0.920633 0.860204,0.941697 0.841262,0.957776 0.832588,0.963806 0.822005,0.970178 0.801239,0.985154 0.780775,0.997083 0.76655,1.004086 0.750117,1.010145 0.728261,1.01951 0.705537,1.025803 0.686158,1.030296 0.665556,1.033036 0.641336,1.037012 0.616082,1.03897 0.594874,1.040196 0.574206,1.040145 0.547807,1.040358 0.520551,1.038994 0.501134,1.037988 0.483072,1.036056 0.455285,1.032917 0.4278,1.027884 0.410683,1.024981 0.394587,1.02102 0.367803,1.01397 0.344122,1.005487 0.327005,0.999691 0.308467,0.991805 0.288112,0.982715 0.270625,0.973422 0.25127,0.96365 0.232847,0.952734 0.217135,0.94289 0.19664,0.927586 0.186265,0.920312 0.179787,0.91468 0.167235,0.902212 0.159394,0.894244 0.148063,0.879361 0.138482,0.863943 0.137838,0.862489 0.131481,0.848413 0.128471,0.839441 0.123573,0.828809 0.122831,0.826262 0.117176,0.816196 0.110344,0.808542 0.10723,0.80438 0.102141,0.797552 0.092272,0.785641 0.080153,0.766437 0.077973,0.762929 0.076542,0.759642 0.066397,0.738389 0.065326,0.736033 0.0566,0.709638 0.055341,0.705944 0.054292,0.701376 0.048093,0.673993 0.044502,0.649939 0.043175,0.640965 0.042265,0.630928 0.040084,0.607581 0.03892,0.58659 0.038267,0.574507 0.037782,0.561642 0.037141,0.542388 0.036913,0.525026 0.036609,0.51073 0.036535,0.494142 0.03658,0.479019 0.036789,0.466026 0.036971,0.446704 0.037556,0.420398 0.037731,0.413139 0.037977,0.407803 0.039345,0.378888 0.039429,0.37791 0.042433,0.349769 0.043009,0.344607 0.044301,0.336967 0.0486,0.310958 0.052583,0.294565 0.05657,0.278654 0.064816,0.253441 0.066703,0.247599 0.068022,0.244294 0.072392,0.233454 0.079352,0.217812 0.08856,0.200279 0.094377,0.189331 0.110735,0.162357 0.110844,0.162177 0.110888,0.162113 0.110965,0.161998 0.130006,0.13761 0.135629,0.131046 0.144644,0.120911 0.150067,0.115798 0.161029,0.106437 0.171947,0.097709 0.176447,0.094451 0.187093,0.088057 0.1957,0.083245 0.205824,0.078106 0.213639,0.074869 0.221572,0.0717 0.232518,0.067668 0.240364,0.06538 0.250566,0.062257 0.256337,0.060583 0.266318,0.058447 0.27651,0.055991 0.276893,0.055908 0.286192,0.054455 0.293481,0.053194 0.295682,0.052954 0.30254,0.052479 0.306094,0.05227 0.313858,0.052209 0.315649,0.052171 0.316678,0.052165" style="fill: white" />
    <polygon slic3r:type="contour" points="2.027871,0.054016 2.046498,0.053458 2.05008,0.053354 2.053703,0.053916 2.103749,0.059518 2.103639,0.121617 2.167275,0.112475 2.250066,0.106838 2.261998,0.109502 2.281447,0.1099 2.425759,0.124911 2.432167,0.129359 2.446038,0.140206 2.495639,0.142722 2.502264,0.144401 2.508915,0.148729 2.550091,0.186357 2.581939,0.212012 2.596341,0.230361 2.603528,0.244333 2.649182,0.321579 2.659409,0.339834 2.667329,0.363337 2.67386,0.37617 2.680082,0.386382 2.695377,0.410725 2.694264,0.429642 2.683673,0.509267 2.736398,0.511426 2.792482,0.522184 2.812185,0.527973 2.847236,0.598118 2.840794,0.622979 2.819564,0.714012 2.814959,0.716032 2.812049,0.717402 2.80002,0.719266 2.7496,0.722818 2.697974,0.810461 2.679119,0.835446 2.677373,0.840816 2.665218,0.850068 2.642964,0.852139 2.570336,0.935263 2.498585,1.009647 2.440344,1.031526 2.359423,1.032147 2.249013,1.048375 2.133858,1.028658 2.062241,1.021805 1.999595,0.995684 1.909414,0.945177 1.823114,0.848028 1.82199,0.847405 1.81878,0.841122 1.810528,0.833473 1.750951,0.728081 1.742726,0.710565 1.734831,0.599985 1.733204,0.571998 1.733172,0.470589 1.732583,0.449815 1.7391,0.353282 1.742312,0.306453 1.765472,0.243021 1.790467,0.184662 1.811021,0.15485 1.838912,0.112438 1.858815,0.097033 1.871521,0.089293 1.964195,0.055587 1.989423,0.052279 2.020377,0.051266" style="fill: white" />
  </g>
  <g id="layer2" slic3r:z="9.5e-07">
    <polygon slic3r:type="contour" points="0.572893,0.24168 0.575324,0.241685 0.578116,0.241727 0.587651,0.241868 0.597572,0.242187 0.601615,0.242316 0.606612,0.242636 0.617305,0.243329 0.627191,0.244391 0.634797,0.24521 0.645586,0.246924 0.654152,0.248272 0.66079,0.249672 0.67538,0.252836 0.689485,0.256895 0.695579,0.258514 0.697504,0.259033 0.701681,0.260523 0.719634,0.266897 0.72698,0.27038 0.740879,0.277023 0.742725,0.278219 0.755371,0.285916 0.760746,0.289127 0.773651,0.298585 0.779236,0.30272 0.781115,0.304329 0.785178,0.307713 0.796333,0.316904 0.805582,0.325314 0.811799,0.330801 0.821733,0.340248 0.825189,0.343543 0.826795,0.345193 0.832076,0.350714 0.836788,0.355677 0.844177,0.364307 0.846995,0.367728 0.851455,0.373752 0.85633,0.380176 0.858938,0.383933 0.865419,0.393547 0.867044,0.39619 0.872432,0.405208 0.874016,0.407918 0.876811,0.413231 0.882102,0.423214 0.884645,0.42869 0.889576,0.439405 0.892403,0.446603 0.895225,0.454246 0.896057,0.45652 0.897318,0.461084 0.901262,0.475227 0.902767,0.483491 0.905028,0.496215 0.90614,0.509497 0.90659,0.517438 0.906749,0.520219 0.906574,0.527314 0.90604,0.547909 0.905262,0.557725 0.903705,0.578498 0.903342,0.581808 0.900842,0.602268 0.899847,0.611103 0.896759,0.633784 0.895197,0.645001 0.894463,0.649794 0.892617,0.662215 0.889983,0.679417 0.886253,0.698436 0.883397,0.713352 0.87496,0.745187 0.87477,0.745897 0.874651,0.746205 0.874313,0.747105 0.863454,0.775977 0.857218,0.787209 0.848926,0.802694 0.840455,0.814523 0.835176,0.821946 0.832234,0.826178 0.821167,0.83863 0.81402,0.846645 0.811662,0.848802 0.80694,0.853106 0.795061,0.864739 0.787633,0.870745 0.77535,0.880445 0.774839,0.880784 0.761965,0.890163 0.756745,0.893873 0.749683,0.898216 0.743997,0.901652 0.740874,0.903486 0.734785,0.906826 0.729458,0.909807 0.728433,0.910406 0.727688,0.910852 0.723727,0.913035 0.721638,0.914122 0.718419,0.915356 0.714251,0.916823 0.711854,0.917743 0.707076,0.91954 0.704583,0.920519 0.702284,0.921622 0.698729,0.923363 0.695643,0.92517 0.693555,0.926298 0.689383,0.928777 0.688118,0.929523 0.685052,0.931325 0.681866,0.933235 0.679905,0.934367 0.676598,0.936174 0.671545,0.938536 0.666349,0.940854 0.663207,0.942186 0.65731,0.944081 0.650048,0.946461 0.642604,0.947682 0.637356,0.948548 0.634872,0.948654 0.630413,0.948796 0.625339,0.948771 0.622225,0.948393 0.619642,0.948005 0.614274,0.94676 0.604689,0.943565 0.595949,0.944305 0.595426,0.944293 0.584757,0.944788 0.575914,0.947836 0.57462,0.948239 0.567859,0.950164 0.567781,0.950187 0.567757,0.950193 0.567732,0.950198 0.567521,0.950228 0.555974,0.951876 0.553774,0.952003 0.546827,0.952354 0.543862,0.952478 0.54095,0.952358 0.533999,0.952016 0.531755,0.95189 0.52022,0.950265 0.520119,0.950248 0.519983,0.950221 0.513495,0.948388 0.512118,0.947962 0.504277,0.945264 0.492782,0.944673 0.491394,0.944693 0.489881,0.944535 0.476403,0.943664 0.469161,0.945762 0.469049,0.945786 0.469017,0.945791 0.46889,0.94581 0.462741,0.946759 0.459757,0.947016 0.456055,0.947253 0.450754,0.947119 0.44557,0.946817 0.442598,0.946624 0.436652,0.945607 0.429432,0.944368 0.423305,0.94223 0.417387,0.940247 0.414518,0.938893 0.41008,0.936568 0.406604,0.934584 0.404105,0.932777 0.402752,0.931657 0.400801,0.929821 0.398757,0.928033 0.397899,0.927265 0.390869,0.920492 0.380857,0.916636 0.378853,0.915686 0.378799,0.915667 0.377232,0.914807 0.376046,0.914143 0.375395,0.913787 0.372799,0.912416 0.368449,0.91022 0.36764,0.909789 0.366022,0.908948 0.359008,0.905467 0.350679,0.901392 0.345844,0.898892 0.335585,0.893079 0.329597,0.889791 0.325745,0.887334 0.316448,0.881066 0.311561,0.878011 0.30041,0.869641 0.292621,0.863671 0.282036,0.853588 0.276544,0.848666 0.274005,0.846391 0.266658,0.838367 0.255907,0.826581 0.252892,0.822467 0.247468,0.81522 0.239213,0.80429 0.23083,0.789995 0.224665,0.779826 0.213668,0.754278 0.21342,0.753701 0.213334,0.753503 0.213192,0.753053 0.204765,0.726061 0.201951,0.713836 0.198336,0.697455 0.196089,0.683866 0.194189,0.672151 0.193363,0.666961 0.191439,0.652497 0.188974,0.633975 0.188237,0.626918 0.186328,0.609434 0.185071,0.597032 0.183196,0.572807 0.1821,0.559065 0.180783,0.531532 0.180421,0.523992 0.180426,0.520819 0.180451,0.511803 0.180865,0.495107 0.182305,0.480212 0.183262,0.470684 0.186332,0.454502 0.187311,0.449328 0.18805,0.446807 0.190505,0.438394 0.193169,0.429883 0.198218,0.417749 0.20089,0.411321 0.20697,0.399577 0.209994,0.393745 0.211816,0.390822 0.2178,0.381183 0.220261,0.377328 0.228136,0.366801 0.231494,0.362309 0.238085,0.354724 0.243205,0.348825 0.246303,0.345767 0.255621,0.336604 0.257863,0.334707 0.266421,0.327547 0.269052,0.325352 0.274581,0.321304 0.283726,0.31463 0.28919,0.311084 0.299929,0.30395 0.30785,0.299243 0.314482,0.295256 0.317399,0.293463 0.325215,0.289218 0.335936,0.283456 0.340596,0.2813 0.352395,0.275713 0.355327,0.274218 0.36817,0.268816 0.375308,0.265817 0.391974,0.260071 0.395692,0.258786 0.397417,0.258302 0.402938,0.256771 0.415935,0.25286 0.429397,0.249693 0.435556,0.24829 0.44371,0.24694 0.453956,0.245223 0.46135,0.244401 0.470976,0.243336 0.481564,0.242641 0.486507,0.242319 0.490548,0.24219 0.500469,0.24187 0.510002,0.241729 0.512793,0.241685 0.515223,0.24168 0.523892,0.241675 0.532135,0.241732 0.534177,0.241743 0.536131,0.241752 0.544056,0.241797 0.551983,0.241751 0.553937,0.241742 0.555979,0.241732 0.564222,0.241674" style="fill: white" />
    <polygon slic3r:type="contour" points="1.14574,0.486553 1.158056,0.487613 1.168997,0.489639 1.171892,0.490143 1.175099,0.491061 1.185768,0.494189 1.194857,0.498005 1.199363,0.499886 1.204122,0.502635 1.212377,0.507373 1.2192,0.512552 1.224567,0.516668 1.229919,0.522026 1.235712,0.527791 1.240355,0.533884 1.245588,0.54075 1.250328,0.549076 1.253984,0.555562 1.256695,0.562408 1.260638,0.572225 1.263493,0.583546 1.265287,0.59075 1.266169,0.598425 1.26766,0.611159 1.267563,0.625261 1.267486,0.633475 1.266454,0.641975 1.264767,0.656476 1.261547,0.670396 1.259505,0.678936 1.256325,0.687212 1.251692,0.69963 1.245852,0.709711 1.241316,0.71733 1.23538,0.724384 1.228989,0.732156 1.222478,0.737978 1.215333,0.744223 1.206794,0.749784 1.200978,0.753641 1.195686,0.756191 1.186563,0.760519 1.176149,0.763864 1.172264,0.765123 1.168819,0.765758 1.158263,0.767719 1.146492,0.768466 1.144763,0.768573 1.143272,0.768498 1.13198,0.767952 1.123259,0.766268 1.119935,0.765649 1.11961,0.765589 1.119198,0.76544 1.107322,0.761222 1.097474,0.755931 1.09491,0.754525 1.091427,0.75197 1.082058,0.745205 1.074535,0.738052 1.069447,0.733122 1.063312,0.7252 1.057762,0.718141 1.053769,0.711079 1.047687,0.700123 1.041898,0.684291 1.039912,0.678941 1.038707,0.673789 1.034552,0.655676 1.032093,0.634546 1.031721,0.631419 1.031699,0.628468 1.031536,0.607279 1.033771,0.587317 1.034109,0.584389 1.034785,0.581571 1.039029,0.563327 1.044275,0.548918 1.045882,0.544661 1.048082,0.540608 1.054255,0.528915 1.060036,0.52131 1.063732,0.516567 1.068446,0.512273 1.074069,0.507085 1.078816,0.503982 1.085022,0.499944 1.092703,0.496334 1.096354,0.494625 1.099244,0.493629 1.107829,0.490638 1.118469,0.488218 1.119619,0.487963 1.120553,0.487867 1.13031,0.486755 1.131862,0.486577 1.14361,0.486487 1.144596,0.486468" style="fill: white" />
    <polygon slic3r:type="contour" points="2.853376,0.48437 2.90353,0.49463 2.909638,0.500626 2.952371,0.535027 2.95608,0.544961 2.977858,0.606157 2.975681,0.626011 2.961302,0.706774 2.952015,0.716798 2.903808,0.75939 2.895099,0.761254 2.847054,0.771306 2.840051,0.769838 2.800919,0.759785 2.796479,0.755304 2.745988,0.706804 2.745142,0.701732 2.728514,0.604573 2.729394,0.60253 2.755771,0.521169 2.757752,0.519729 2.801045,0.49147 2.805417,0.490687 2.846922,0.483192" style="fill: white" />
    <polygon slic3r:type="contour" points="2.350713,0.245648 2.351315,0.245766 2.362937,0.249213 2.400701,0.259376 2.436273,0.268946 2.446559,0.271453 2.448231,0.272637 2.519044,0.333961 2.528631,0.346491 2.558687,0.377919 2.580269,0.413092 2.594995,0.436815 2.617495,0.505607 2.618542,0.510791 2.618039,0.515265 2.598976,0.643366 2.582377,0.73639 2.573894,0.784072 2.498855,0.868934 2.49744,0.870799 2.423103,0.914222 2.423166,0.914275 2.412064,0.917588 2.400182,0.923441 2.383862,0.93403 2.377897,0.937732 2.350782,0.951586 2.342844,0.950958 2.326644,0.951353 2.299007,0.935206 2.271246,0.952392 2.263499,0.953405 2.252417,0.953167 2.245741,0.954976 2.239064,0.953167 2.227983,0.953405 2.218099,0.948088 2.209726,0.945764 2.194103,0.943327 2.193358,0.943476 2.18063,0.941235 2.165077,0.949186 2.158664,0.949735 2.129075,0.948706 2.117769,0.94403 2.107174,0.935968 2.095634,0.920618 2.079158,0.914194 2.074197,0.911636 2.06802,0.910425 2.037965,0.892916 2.019591,0.883475 1.994575,0.870808 1.99319,0.868985 1.918072,0.784072 1.909554,0.744468 1.892893,0.66759 1.874086,0.516098 1.873576,0.510763 1.874085,0.504968 1.889185,0.4275 1.906428,0.399709 1.931751,0.358796 1.967325,0.328026 1.981583,0.314889 2.05441,0.272124 2.055813,0.271453 2.06497,0.268945 2.096637,0.259339 2.13023,0.249215 2.140606,0.245765 2.141208,0.245648 2.206679,0.242498 2.207688,0.242544 2.245952,0.243347 2.284221,0.242543 2.28523,0.242498" style="fill: white" />
  </g>
  <g id="layer3" slic3r:z="1.25e-06">
    <polygon slic3r:type="contour" points="0.552094,0.115754 0.55569,0.116079 0.558482,0.116742 0.565282,0.118165 0.570667,0.120048 0.572976,0.120917 0.573418,0.121072 0.574024,0.121368 0.579851,0.124208 0.583404,0.126161 0.585543,0.12741 0.586292,0.12782 0.588071,0.128964 0.593832,0.132855 0.595795,0.134462 0.599616,0.137079 0.601892,0.138757 0.605698,0.142087 0.609352,0.145032 0.611002,0.14673 0.6136,0.149541 0.61687,0.153171 0.617033,0.153383 0.626018,0.1651 0.639616,0.170524 0.645261,0.173376 0.649799,0.17541 0.659038,0.178077 0.675318,0.181855 0.676883,0.182075 0.688963,0.184655 0.700496,0.186438 0.703266,0.186811 0.706672,0.187258 0.71712,0.188465 0.725792,0.189334 0.730699,0.19003 0.736999,0.191014 0.744167,0.191859 0.74993,0.192757 0.757697,0.194245 0.76909,0.196866 0.771638,0.197391 0.773503,0.197855 0.782509,0.200467 0.786385,0.201909 0.799263,0.207415 0.802239,0.208813 0.807195,0.211429 0.819717,0.217639 0.82827,0.222236 0.838579,0.22846 0.85824,0.24147 0.858355,0.24154 0.858409,0.241576 0.858593,0.241732 0.876095,0.257086 0.88601,0.268032 0.89133,0.274394 0.898166,0.284668 0.904206,0.293305 0.907493,0.299374 0.91474,0.313711 0.921363,0.331157 0.922756,0.334876 0.923008,0.335579 0.923287,0.336654 0.929193,0.359081 0.932306,0.375703 0.93375,0.38347 0.935212,0.394567 0.936987,0.408051 0.937834,0.417559 0.939149,0.43221 0.940226,0.451256 0.940455,0.455244 0.940534,0.458232 0.941038,0.478234 0.941047,0.478551 0.941064,0.500089 0.941068,0.503446 0.941007,0.508682 0.940723,0.531382 0.940408,0.549477 0.940208,0.563774 0.939666,0.587264 0.939379,0.598701 0.939093,0.606158 0.938042,0.63427 0.93763,0.641089 0.936171,0.664136 0.935851,0.668625 0.935184,0.674491 0.932565,0.699928 0.929693,0.716602 0.927374,0.728695 0.922855,0.743744 0.919515,0.75544 0.915904,0.763723 0.908264,0.780671 0.895274,0.801182 0.892941,0.804884 0.89071,0.807575 0.874382,0.827497 0.862302,0.839244 0.853984,0.847292 0.853391,0.847874 0.852698,0.848422 0.830789,0.865388 0.809468,0.878164 0.807402,0.879445 0.80528,0.880487 0.783464,0.890744 0.761288,0.899163 0.75922,0.89999 0.757166,0.900699 0.734956,0.907891 0.713587,0.914328 0.710989,0.915173 0.708293,0.915972 0.687263,0.921689 0.667852,0.926216 0.663682,0.927292 0.659243,0.928226 0.64013,0.931817 0.622166,0.934199 0.616481,0.935078 0.610553,0.935694 0.592744,0.937223 0.575422,0.938012 0.568942,0.938392 0.562376,0.938513 0.5451,0.938736 0.527822,0.938519 0.521256,0.938403 0.514771,0.938055 0.497444,0.937349 0.479629,0.936062 0.473697,0.935534 0.468009,0.93482 0.45004,0.932917 0.430937,0.930176 0.426483,0.929455 0.4223,0.928621 0.40289,0.925124 0.381866,0.92053 0.379129,0.919882 0.37649,0.919159 0.355099,0.913685 0.332823,0.90713 0.330729,0.906478 0.328622,0.905666 0.306362,0.897518 0.284422,0.887121 0.282297,0.886067 0.280225,0.884726 0.258793,0.87139 0.236775,0.853337 0.2361,0.852768 0.235524,0.852163 0.227401,0.843811 0.215033,0.831036 0.198658,0.809916 0.196406,0.807073 0.19405,0.803203 0.181023,0.781747 0.173358,0.764341 0.16973,0.755866 0.166386,0.744047 0.161848,0.728804 0.159521,0.716655 0.15666,0.699932 0.154076,0.67451 0.153408,0.668631 0.153086,0.664131 0.151682,0.641037 0.151283,0.634275 0.150268,0.606154 0.150019,0.598704 0.149782,0.587275 0.149293,0.563776 0.149114,0.549471 0.148875,0.531382 0.148622,0.508686 0.148566,0.503443 0.148568,0.500081 0.148569,0.478547 0.148576,0.478194 0.149013,0.458229 0.149078,0.455242 0.149288,0.451251 0.150294,0.432208 0.151573,0.417569 0.1524,0.40805 0.154166,0.394552 0.155612,0.383469 0.157048,0.375715 0.160173,0.35908 0.166113,0.336647 0.16639,0.335577 0.166642,0.334876 0.168037,0.331173 0.17469,0.313709 0.181956,0.299371 0.185276,0.293301 0.19136,0.284666 0.198223,0.274393 0.203558,0.268031 0.213541,0.257085 0.231134,0.241732 0.231318,0.241576 0.231373,0.24154 0.231488,0.24147 0.251242,0.22846 0.261586,0.222237 0.270187,0.217639 0.282762,0.211429 0.287735,0.208812 0.290717,0.207416 0.303652,0.201909 0.307541,0.200467 0.316578,0.197856 0.318452,0.197392 0.321012,0.196866 0.332443,0.194246 0.340232,0.192756 0.346017,0.191859 0.353208,0.191015 0.359524,0.19003 0.364441,0.189333 0.373136,0.188465 0.38361,0.187256 0.38702,0.186812 0.389796,0.186437 0.401349,0.184655 0.413449,0.182074 0.415016,0.181855 0.431318,0.178076 0.440567,0.175411 0.445113,0.173376 0.450764,0.170525 0.464378,0.165105 0.473396,0.153367 0.473605,0.153096 0.476859,0.149482 0.479418,0.146713 0.481172,0.144906 0.484784,0.141993 0.488651,0.13861 0.490762,0.137055 0.494688,0.134368 0.496699,0.132725 0.502562,0.128776 0.504207,0.127721 0.504905,0.127341 0.506915,0.126174 0.510619,0.124149 0.516395,0.121349 0.517025,0.121043 0.517481,0.120885 0.519853,0.119997 0.525153,0.11815 0.531954,0.116734 0.53474,0.116074 0.538331,0.115751 0.545215,0.115217" style="fill: white" />
    <polygon slic3r:type="contour" points="1.177352,0.542878 1.177972,0.54292 1.178546,0.543016 1.189112,0.544758 1.198998,0.547635 1.199539,0.547793 1.200051,0.548013 1.209345,0.552097 1.218123,0.557456 1.218626,0.557749 1.219108,0.558099 1.227353,0.564481 1.235024,0.571618 1.235499,0.572028 1.235946,0.572474 1.243036,0.580123 1.249483,0.587988 1.249936,0.588499 1.250325,0.589094 1.255756,0.597995 1.259722,0.608616 1.260054,0.609449 1.260236,0.610509 1.262382,0.623698 1.262302,0.640025 1.262295,0.641586 1.26208,0.643359 1.259976,0.661501 1.256064,0.67977 1.255608,0.681838 1.254953,0.683816 1.249378,0.700989 1.242371,0.715508 1.241472,0.717345 1.240425,0.718892 1.23228,0.731013 1.223383,0.740791 1.222192,0.7421 1.220944,0.743123 1.211599,0.750716 1.202169,0.756208 1.20089,0.756968 1.199574,0.757471 1.189879,0.761106 1.179776,0.763106 1.178377,0.763388 1.17688,0.763471 1.166198,0.764064 1.154779,0.763471 1.153153,0.763388 1.151453,0.763107 1.139606,0.761106 1.127626,0.75747 1.125925,0.756968 1.124256,0.756208 1.112472,0.750717 1.10116,0.743122 1.09961,0.7421 1.098186,0.740791 1.087708,0.731014 1.07834,0.718893 1.07713,0.717346 1.076121,0.715508 1.068241,0.700989 1.062125,0.683816 1.061411,0.681839 1.060926,0.679764 1.056742,0.661441 1.054563,0.643129 1.054344,0.641343 1.05434,0.639758 1.054319,0.623091 1.056584,0.609329 1.056772,0.608234 1.057112,0.607361 1.061302,0.596084 1.067101,0.586589 1.067505,0.585965 1.067983,0.58543 1.074979,0.577194 1.082845,0.569541 1.083326,0.569091 1.083858,0.568688 1.092612,0.561819 1.102337,0.555867 1.102908,0.555529 1.103531,0.555261 1.114278,0.550387 1.126111,0.546739 1.126788,0.54655 1.127508,0.546424 1.139925,0.54395 1.152464,0.542587 1.153172,0.542522 1.15385,0.542512 1.166023,0.542199" style="fill: white" />
    <polygon slic3r:type="contour" points="2.877319,0.54102 2.912884,0.548269 2.920502,0.553528 2.946216,0.579716 2.952149,0.586483 2.969689,0.614596 2.966011,0.634988 2.954902,0.707973 2.945176,0.718967 2.913751,0.756624 2.904799,0.759091 2.869878,0.767439 2.855356,0.764965 2.813314,0.756623 2.8021,0.745562 2.765739,0.707973 2.762004,0.68711 2.751167,0.614596 2.756983,0.607717 2.775318,0.575618 2.78367,0.569597 2.813744,0.547222 2.827064,0.546354 2.869776,0.539108" style="fill: white" />
    <polygon slic3r:type="contour" points="2.270419,0.121056 2.282045,0.119766 2.295757,0.135035 2.314412,0.144021 2.32769,0.164247 2.385174,0.161512 2.39586,0.16565 2.414883,0.164695 2.444828,0.17367 2.446912,0.17447 2.494104,0.191881 2.501314,0.195784 2.566265,0.238108 2.584228,0.252854 2.599227,0.280107 2.629777,0.331209 2.638695,0.3996 2.643434,0.435397 2.643777,0.458316 2.643173,0.520238 2.642159,0.541064 2.642229,0.621009 2.641765,0.666341 2.641442,0.676195 2.62797,0.763261 2.621704,0.783355 2.55966,0.850515 2.5361,0.87517 2.457232,0.90261 2.436797,0.911028 2.369449,0.927093 2.343023,0.936605 2.278231,0.937342 2.247027,0.941345 2.215847,0.937381 2.150997,0.936641 2.124649,0.929735 2.057182,0.918018 2.036788,0.909685 1.957345,0.882662 1.933861,0.855521 1.871655,0.783356 1.865355,0.763256 1.852104,0.676197 1.851746,0.66634 1.851431,0.621007 1.851165,0.541063 1.850581,0.520238 1.84997,0.458317 1.849925,0.435397 1.854757,0.3996 1.863506,0.33121 1.894335,0.280106 1.909281,0.252854 1.92716,0.238107 1.992514,0.195784 1.999697,0.191882 2.04712,0.17447 2.049198,0.17367 2.079223,0.164694 2.098287,0.16565 2.108987,0.161511 2.166501,0.164246 2.179959,0.143858 2.199761,0.127621 2.21219,0.119766 2.223812,0.121056 2.247119,0.109587" style="fill: white" />
  </g>
  <g id="layer4" slic3r:z="1.55e-06">
    <polygon slic3r:type="contour" points="0.546857,0.356346 0.560216,0.35653 0.572355,0.35698 0.573649,0.357016 0.574901,0.35708 0.585896,0.357731 0.595128,0.358511 0.596231,0.358603 0.597138,0.358728 0.60402,0.359543 0.604211,0.359574 0.609127,0.360439 0.610174,0.360556 0.61267,0.360965 0.616521,0.361734 0.617447,0.361863 0.619871,0.362261 0.621721,0.362583 0.624002,0.362912 0.627569,0.363557 0.63215,0.363583 0.636057,0.364107 0.642476,0.365032 0.645096,0.365771 0.649127,0.366912 0.654653,0.368154 0.663109,0.371396 0.668275,0.373428 0.677481,0.378828 0.68148,0.381044 0.682902,0.381841 0.689098,0.385867 0.698755,0.392122 0.7012,0.39373 0.703684,0.395387 0.716021,0.40331 0.721985,0.406802 0.728107,0.410398 0.734891,0.4143 0.742977,0.418115 0.750975,0.421903 0.755432,0.423999 0.764847,0.427623 0.774666,0.431463 0.777029,0.432394 0.788088,0.435941 0.798994,0.439546 0.801537,0.440222 0.812964,0.443323 0.820644,0.445487 0.834774,0.448647 0.839084,0.4496 0.841285,0.450114 0.846395,0.451073 0.860135,0.453573 0.86521,0.454298 0.876947,0.456104 0.881234,0.456612 0.889548,0.457533 0.891406,0.457752 0.893507,0.457924 0.903398,0.458719 0.909476,0.459275 0.913161,0.459615 0.916396,0.460211 0.920765,0.461014 0.923552,0.462284 0.926211,0.463483 0.927831,0.46551 0.929475,0.467594 0.930284,0.470573 0.931098,0.473507 0.93135,0.477249 0.931619,0.481388 0.931591,0.48702 0.931578,0.491398 0.931555,0.49628 0.931517,0.503701 0.931355,0.513805 0.931267,0.518533 0.931073,0.523441 0.930677,0.536137 0.929807,0.553534 0.929603,0.556776 0.929308,0.560074 0.927928,0.580726 0.926196,0.598458 0.92546,0.605849 0.925406,0.606572 0.925292,0.607535 0.921751,0.632908 0.917727,0.65257 0.916697,0.658351 0.914709,0.665394 0.909885,0.681474 0.905365,0.692758 0.901673,0.702454 0.89568,0.714863 0.892406,0.721501 0.889939,0.72573 0.882396,0.738861 0.878791,0.744345 0.873392,0.752425 0.87191,0.754635 0.868837,0.758275 0.860304,0.768413 0.855263,0.772711 0.847016,0.779797 0.839344,0.783968 0.833752,0.786858 0.831653,0.787992 0.826226,0.789404 0.813954,0.792404 0.807879,0.792718 0.794793,0.793865 0.79316,0.793773 0.780691,0.792994 0.775019,0.792867 0.757893,0.790422 0.755239,0.790014 0.754377,0.7898 0.752705,0.789415 0.735978,0.785771 0.730475,0.783832 0.721037,0.780591 0.717164,0.779416 0.708171,0.775085 0.698709,0.770603 0.694808,0.767819 0.68739,0.763385 0.680245,0.759251 0.674116,0.753753 0.66845,0.749684 0.661327,0.744926 0.657961,0.741601 0.651366,0.736717 0.645556,0.733199 0.637467,0.730003 0.635905,0.728997 0.634375,0.728363 0.620889,0.720874 0.609324,0.718061 0.606631,0.717107 0.597312,0.715816 0.591868,0.715432 0.58645,0.714707 0.573408,0.713971 0.561176,0.713764 0.56001,0.713753 0.558797,0.713755 0.546147,0.713767 0.533481,0.713778 0.532275,0.713779 0.531117,0.713791 0.518834,0.713999 0.505725,0.714697 0.500547,0.715334 0.49467,0.715689 0.485111,0.716802 0.482253,0.717674 0.470085,0.720207 0.453401,0.728721 0.453362,0.728745 0.442813,0.732881 0.432576,0.7406 0.429371,0.743813 0.42222,0.748794 0.41653,0.75305 0.410548,0.758527 0.403391,0.762884 0.395918,0.767522 0.392122,0.770259 0.382546,0.774899 0.373494,0.779287 0.369438,0.780539 0.359916,0.783803 0.354343,0.785739 0.337103,0.789448 0.335468,0.789818 0.334625,0.790023 0.332021,0.790412 0.314306,0.79288 0.308434,0.793009 0.295529,0.793792 0.293959,0.793878 0.280461,0.792727 0.274236,0.792413 0.261645,0.789422 0.256015,0.787999 0.253837,0.786856 0.248047,0.783949 0.240207,0.779803 0.231722,0.772709 0.226552,0.768419 0.217806,0.758294 0.21464,0.754642 0.213116,0.752427 0.207567,0.744325 0.203896,0.738871 0.196183,0.72574 0.193666,0.721516 0.190326,0.714884 0.184207,0.702472 0.180439,0.692772 0.175835,0.681493 0.170922,0.665413 0.168897,0.658367 0.167848,0.652581 0.163755,0.632916 0.16016,0.607538 0.160044,0.606577 0.15999,0.605855 0.159246,0.598496 0.157492,0.580726 0.156102,0.560075 0.155806,0.556775 0.1556,0.553528 0.154727,0.536134 0.154329,0.523441 0.154134,0.518531 0.154046,0.513801 0.153886,0.5037 0.153848,0.496281 0.153825,0.491399 0.153812,0.487018 0.153787,0.481388 0.154058,0.477252 0.154316,0.473507 0.15514,0.470572 0.155962,0.467594 0.157629,0.465511 0.159272,0.463484 0.161967,0.462285 0.164795,0.461015 0.169233,0.460211 0.172518,0.459616 0.176266,0.459275 0.182455,0.458718 0.192551,0.457924 0.194691,0.457752 0.196586,0.457534 0.205076,0.456615 0.209491,0.456103 0.221523,0.454298 0.226743,0.453572 0.240895,0.451066 0.246111,0.450114 0.248355,0.449603 0.252752,0.448657 0.267349,0.445485 0.275225,0.443328 0.286936,0.440239 0.289627,0.439544 0.300816,0.435951 0.312229,0.432391 0.314568,0.431495 0.324707,0.427639 0.334424,0.423997 0.338892,0.421948 0.347149,0.418137 0.355489,0.414297 0.362304,0.410465 0.368628,0.406832 0.374783,0.403304 0.387205,0.39548 0.389815,0.393771 0.39238,0.392115 0.40248,0.385678 0.408491,0.381835 0.40987,0.381073 0.413748,0.378954 0.423323,0.373415 0.428457,0.37142 0.437105,0.368143 0.442293,0.36699 0.446608,0.365779 0.449406,0.365 0.45623,0.364028 0.459824,0.363551 0.464049,0.36353 0.468064,0.362813 0.470193,0.36251 0.471924,0.362213 0.474714,0.361762 0.47559,0.36164 0.479145,0.360937 0.481862,0.360499 0.482999,0.360372 0.488078,0.359488 0.488445,0.359443 0.495074,0.358668 0.495914,0.358554 0.496939,0.35847 0.506293,0.357693 0.517385,0.357047 0.518582,0.356988 0.519825,0.356955 0.532047,0.356515 0.545417,0.356346 0.546137,0.35634" style="fill: white" />
    <polygon slic3r:type="contour" points="2.279244,0.357792 2.303593,0.357806 2.319284,0.36068 2.321885,0.361194 2.327427,0.362211 2.343058,0.36687 2.367406,0.366902 2.422932,0.410781 2.432213,0.41738 2.465852,0.428206 2.494461,0.438181 2.511959,0.444794 2.522443,0.448462 2.568923,0.454564 2.599137,0.459821 2.611946,0.459938 2.633946,0.459987 2.634039,0.476495 2.633887,0.486236 2.634165,0.52234 2.633558,0.549097 2.624334,0.607227 2.623502,0.664862 2.608587,0.692579 2.584793,0.744429 2.546625,0.791587 2.540859,0.797931 2.537779,0.801006 2.479673,0.791605 2.453943,0.794342 2.432234,0.785788 2.383191,0.763092 2.378759,0.763545 2.338467,0.733844 2.328808,0.733868 2.303383,0.720115 2.270638,0.720152 2.248073,0.720154 2.225427,0.720157 2.192604,0.720189 2.164941,0.731827 2.155197,0.731843 2.116347,0.763265 2.111988,0.763155 2.062112,0.785826 2.039911,0.794359 2.013328,0.79162 1.953473,0.801008 1.950277,0.797925 1.944327,0.791564 1.905226,0.744431 1.88095,0.692576 1.865752,0.664863 1.864903,0.60723 1.855552,0.549097 1.854948,0.522345 1.85521,0.486236 1.85506,0.476496 1.855149,0.459988 1.877492,0.459939 1.890516,0.459821 1.921434,0.454564 1.969335,0.448462 1.98011,0.4448 1.998013,0.438204 2.027574,0.428225 2.062184,0.417379 2.071653,0.410805 2.128098,0.366898 2.152105,0.366867 2.16782,0.362237 2.173828,0.361149 2.176632,0.3606 2.19234,0.357757 2.216717,0.357769 2.248063,0.354989" style="fill: white" />
  </g>
</svg>
